<?xml version="1.0" encoding="utf-8"?>
<!-- Generator: Adobe Illustrator 24.1.0, SVG Export Plug-In . SVG Version: 6.00 Build 0)  -->
<svg version="1.1" id="Layer_1" xmlns="http://www.w3.org/2000/svg" xmlns:xlink="http://www.w3.org/1999/xlink" x="0px" y="0px"
	 viewBox="0 0 245 79" style="enable-background:new 0 0 245 79;" xml:space="preserve">
<style type="text/css">
	.st0{fill-rule:evenodd;clip-rule:evenodd;fill:#087FFF;}
	.st1{fill:#FFFFFF;}
	.st2{font-family:'Helvetica-Light';}
	.st3{font-size:45px;}
</style>
<desc>Created with Sketch.</desc>
<g id="Page-1">
	<g id="logo">
		<path id="Bubble" class="st0" d="M221.5,72.3c11,6.9,23.3,6.7,23.3,6.7c0.3,0,0.4-0.1,0.1-0.3c0,0-8.4-5-9.7-13.2
			c-0.3-1.6-0.4-3.5-0.6-5.6c4-6,6.3-12.9,6.3-20.4c0-21.8-19.6-39.5-43.8-39.5H43.8C19.6,0,0,17.7,0,39.5S19.6,79,43.8,79h153.3
			C206.1,79,214.5,76.5,221.5,72.3z"/>
		<text transform="matrix(1 0 0 1 27 53)" class="st1 st2 st3">sendblue</text>
	</g>
</g>
</svg>
